<?xml version="1.0" standalone="no"?>
<!DOCTYPE svg PUBLIC "-//W3C//DTD SVG 20010904//EN"
 "http://www.w3.org/TR/2001/REC-SVG-20010904/DTD/svg10.dtd">
<svg version="1.0" xmlns="http://www.w3.org/2000/svg"
 width="40px" height="55px" viewBox="0 0 794.000000 1054.000000"
 preserveAspectRatio="xMidYMid meet">
<metadata>
Created by potrace 1.16, written by Peter Selinger 2001-2019
</metadata>
<g transform="translate(0.000000,1054.000000) scale(0.100000,-0.100000)"
fill="white" stroke="none">
<path d="M2096 10097 c-41 -41 -166 -316 -247 -542 -9 -27 -34 -95 -54 -150
-71 -196 -211 -623 -281 -855 -122 -408 -212 -757 -260 -1015 -26 -134 -25
-362 1 -438 13 -40 26 -59 40 -63 11 -3 63 11 115 31 52 19 99 35 103 35 5 0
23 7 40 15 18 8 88 36 157 63 69 27 166 66 215 87 50 20 101 41 115 45 14 5
70 27 125 50 55 23 150 62 210 86 61 25 119 49 130 55 16 8 41 0 125 -39 58
-27 132 -61 165 -76 33 -15 114 -54 180 -87 198 -98 220 -129 92 -129 -71 0
-480 43 -529 55 -17 4 -48 -4 -99 -28 -150 -69 -197 -91 -364 -170 -293 -137
-336 -157 -340 -157 -2 0 -50 -22 -107 -49 -56 -27 -155 -72 -218 -101 -63
-29 -149 -68 -190 -87 -266 -125 -427 -187 -455 -177 -35 14 -45 69 -45 252 0
306 46 559 235 1287 77 296 191 668 430 1400 23 72 55 171 70 220 15 50 33
108 40 130 7 22 17 58 21 79 8 48 -5 42 -43 -17 -24 -38 -213 -411 -213 -421
0 -2 -18 -43 -40 -90 -52 -112 -210 -473 -265 -606 -24 -58 -62 -150 -85 -205
-23 -55 -62 -149 -86 -210 -25 -60 -49 -119 -54 -130 -5 -11 -29 -72 -54 -135
-24 -63 -65 -168 -90 -233 -25 -65 -46 -121 -46 -126 0 -7 -26 -77 -51 -136
-12 -29 -74 -219 -97 -300 -12 -38 -28 -93 -36 -121 -37 -123 -48 -242 -42
-439 13 -417 86 -795 155 -795 54 0 615 271 1681 813 l334 170 291 -6 c159 -3
304 -10 320 -15 l30 -10 -50 -22 c-27 -13 -70 -29 -95 -36 -44 -12 -254 -71
-356 -100 -85 -23 -223 -82 -272 -116 -174 -118 -640 -503 -1242 -1027 -267
-232 -448 -407 -474 -459 -16 -31 -16 -40 3 -150 31 -174 72 -367 132 -622 39
-166 151 -616 164 -655 6 -22 22 -74 34 -115 103 -342 262 -709 491 -1130 31
-58 75 -139 97 -180 135 -254 279 -495 326 -547 23 -26 47 -30 47 -9 0 21 -52
174 -120 351 -34 88 -79 207 -101 265 -21 58 -43 114 -49 125 -50 105 -271
723 -304 850 -60 235 -200 941 -231 1165 -3 25 -10 65 -15 90 -6 25 -19 117
-30 204 l-20 159 25 55 c33 72 280 320 895 898 152 143 408 372 465 415 17 13
32 26 35 29 11 14 162 67 310 110 41 12 86 25 100 30 35 12 186 47 239 55 85
14 33 -30 -229 -189 -297 -181 -381 -251 -457 -381 -37 -63 -197 -386 -260
-525 -14 -30 -48 -102 -75 -160 -94 -199 -245 -525 -278 -600 -18 -41 -50
-112 -71 -158 -22 -45 -39 -85 -39 -88 0 -3 -6 -20 -14 -37 -8 -18 -24 -54
-37 -82 -25 -56 -28 -140 -9 -255 6 -36 17 -110 25 -165 17 -113 35 -226 64
-395 11 -63 25 -144 31 -180 5 -36 14 -83 20 -105 5 -22 21 -103 36 -180 64
-339 115 -533 200 -752 68 -177 138 -349 172 -423 11 -25 32 -72 45 -105 14
-33 44 -100 67 -150 23 -49 55 -118 71 -152 92 -200 244 -500 348 -688 39 -70
75 -119 79 -107 2 6 -6 45 -18 84 -12 40 -29 96 -37 123 -61 203 -302 922
-504 1510 -21 58 -34 153 -64 435 -7 74 -25 243 -39 375 -37 341 -42 402 -67
760 l-22 320 43 90 c64 136 83 178 305 665 74 161 141 302 234 492 157 317
153 312 366 467 200 145 301 201 363 203 43 1 54 -12 54 -62 -1 -57 -24 -124
-94 -270 -125 -259 -133 -278 -188 -455 -5 -16 -18 -84 -30 -151 -70 -420 55
-988 337 -1524 94 -179 205 -342 302 -442 95 -100 116 -107 145 -53 11 19 26
35 33 35 8 0 34 -16 57 -35 24 -19 50 -35 59 -35 27 0 166 160 253 292 95 142
169 281 238 443 26 61 51 119 56 130 24 53 91 273 118 385 59 246 67 313 67
585 0 237 -2 255 -26 350 -35 131 -62 199 -177 435 -101 209 -122 259 -122
295 0 35 47 85 79 85 34 0 155 -70 312 -179 220 -154 261 -203 404 -496 78
-160 96 -199 182 -385 19 -41 45 -97 58 -125 48 -102 214 -483 254 -585 24
-58 50 -123 59 -145 26 -62 22 -194 -24 -700 -87 -976 -130 -1212 -319 -1750
-25 -71 -52 -148 -59 -170 -15 -42 -90 -254 -150 -420 -20 -55 -50 -140 -67
-190 -16 -49 -34 -99 -39 -110 -5 -11 -21 -56 -35 -100 -15 -44 -30 -89 -35
-100 -18 -42 -31 -95 -28 -112 9 -41 106 125 307 522 118 232 148 295 261 540
181 390 301 699 345 890 8 33 21 87 30 120 26 101 102 475 140 690 7 44 21
118 30 165 70 370 78 439 72 608 -5 161 -18 216 -92 378 -8 16 -27 59 -43 95
-38 83 -97 206 -189 399 -41 85 -89 184 -105 220 -17 36 -120 246 -228 467
l-198 401 -53 35 c-30 19 -157 96 -284 170 -126 75 -249 147 -272 161 -128 76
35 57 382 -46 110 -32 176 -54 227 -76 61 -27 298 -236 738 -651 504 -476 654
-628 706 -717 l25 -42 -16 -114 c-8 -62 -22 -153 -31 -203 -134 -780 -237
-1274 -308 -1480 -48 -141 -192 -526 -277 -745 -238 -612 -263 -680 -250 -693
32 -32 141 133 384 583 253 469 520 1062 578 1285 4 17 17 62 27 100 48 169
157 593 181 700 6 28 27 120 46 205 58 255 104 505 105 572 0 17 -111 114
-900 788 -536 458 -772 655 -831 692 -38 24 -244 92 -469 154 -158 45 -260 85
-260 103 0 17 59 22 330 27 l275 5 400 -206 c416 -214 1388 -701 1440 -722
175 -70 177 -70 203 0 42 112 94 368 112 546 29 294 -8 541 -138 936 -56 167
-121 350 -151 422 -11 27 -63 156 -115 288 -52 132 -120 301 -151 375 -32 74
-67 160 -79 190 -13 30 -30 71 -39 90 -8 19 -45 103 -80 185 -36 83 -83 190
-106 239 -22 48 -41 90 -41 92 0 2 -16 38 -36 81 -176 374 -249 512 -265 496
-6 -6 -6 -19 0 -34 5 -13 40 -125 77 -249 36 -124 70 -234 75 -245 4 -11 40
-121 79 -245 40 -124 83 -259 97 -300 14 -41 30 -95 37 -120 7 -25 30 -101 51
-170 54 -181 74 -249 89 -305 8 -27 26 -93 41 -145 15 -52 36 -126 46 -165 11
-38 24 -83 28 -100 5 -16 19 -68 30 -115 11 -47 34 -142 51 -212 64 -268 72
-331 76 -638 6 -325 4 -336 -57 -334 -35 1 -225 74 -404 154 -326 147 -488
221 -565 257 -214 102 -505 228 -595 258 -174 58 -303 67 -530 40 -154 -18
-275 -20 -275 -2 0 6 19 24 43 39 56 35 264 137 385 188 53 23 108 47 121 53
71 34 159 8 677 -198 354 -142 614 -235 657 -235 39 0 52 113 37 310 -10 135
-38 332 -60 425 -5 22 -21 92 -35 155 -51 223 -198 717 -336 1132 -79 235
-216 618 -244 683 -8 17 -26 62 -41 100 -32 84 -92 209 -118 248 -10 15 -25
27 -33 27 -13 0 -14 -9 -9 -52 4 -29 13 -78 21 -108 8 -30 55 -221 105 -425
50 -203 95 -383 100 -400 5 -16 16 -61 24 -100 8 -38 22 -99 30 -135 128 -552
184 -878 193 -1115 5 -150 -3 -195 -35 -195 -23 0 -242 73 -372 125 -52 20
-147 57 -210 82 -63 24 -128 50 -145 58 -59 26 -184 65 -207 65 -30 0 -198
-96 -492 -280 -126 -78 -237 -145 -247 -147 -9 -3 -21 1 -25 9 -5 7 -11 83
-14 168 -6 148 -7 158 -35 209 -31 57 -212 251 -234 251 -16 0 -9 -38 26 -135
63 -181 82 -315 49 -360 -13 -18 -18 -15 -100 54 -60 51 -91 71 -103 67 -10
-4 -47 -36 -83 -71 -36 -36 -69 -65 -75 -65 -6 0 -44 34 -85 75 -41 41 -79 75
-85 75 -5 -1 -44 -32 -85 -70 -41 -38 -83 -70 -93 -70 -25 0 -39 44 -39 120
-1 65 0 69 86 305 16 43 22 73 16 79 -14 14 -204 -182 -235 -244 -24 -47 -28
-69 -35 -204 -7 -150 -14 -186 -31 -186 -22 0 -156 75 -334 186 -165 104 -341
206 -382 223 -20 8 -47 11 -67 7 -33 -6 -227 -75 -271 -96 -11 -5 -49 -21 -85
-35 -36 -15 -78 -32 -95 -39 -28 -12 -92 -38 -285 -114 -98 -38 -173 -57 -195
-48 -35 13 -7 431 46 696 40 203 77 366 160 710 126 519 170 698 179 730 5 19
19 73 29 120 11 47 29 125 41 174 27 113 24 131 -14 93z"/>
</g>
</svg>
